<svg xmlns="http://www.w3.org/2000/svg" xmlns:xlink="http://www.w3.org/1999/xlink" contentStyleType="text/css" height="609px" preserveAspectRatio="none" style="width:253px;height:609px;background:#FFFFFF;" version="1.1" viewBox="0 0 253 609" width="253px" zoomAndPan="magnify"><defs/><g><rect fill="#FFFFFF" height="54" style="stroke:#181818;stroke-width:1.0;" width="10" x="47.5" y="218"/><rect fill="#FFFFFF" height="81" style="stroke:#181818;stroke-width:1.0;" width="10" x="47.5" y="330"/><rect fill="#FFFFFF" height="35" style="stroke:#FFFFFF;stroke-width:1.0;" width="10" x="47.5" y="438"/><line style="stroke:#181818;stroke-width:1.0;" x1="47.5" x2="47.5" y1="438" y2="473"/><line style="stroke:#181818;stroke-width:1.0;" x1="57.5" x2="57.5" y1="438" y2="473"/><line style="stroke:#181818;stroke-width:1.0;" x1="47.5" x2="57.5" y1="438" y2="438"/><rect fill="#FFFFFF" height="46" style="stroke:#FFFFFF;stroke-width:1.0;" width="10" x="47.5" y="512"/><line style="stroke:#181818;stroke-width:1.0;" x1="47.5" x2="47.5" y1="512" y2="558"/><line style="stroke:#181818;stroke-width:1.0;" x1="57.5" x2="57.5" y1="512" y2="558"/><line style="stroke:#181818;stroke-width:1.0;" x1="47.5" x2="57.5" y1="558" y2="558"/><line style="stroke:#181818;stroke-width:0.5;stroke-dasharray:5.0,5.0;" x1="52" x2="52" y1="104.5" y2="473"/><line style="stroke:#A80036;stroke-width:1.0;stroke-dasharray:1.0,4.0;" x1="52" x2="52" y1="473" y2="512"/><line style="stroke:#181818;stroke-width:0.5;stroke-dasharray:5.0,5.0;" x1="52" x2="52" y1="512" y2="576"/><line style="stroke:#181818;stroke-width:0.5;stroke-dasharray:5.0,5.0;" x1="206.5" x2="206.5" y1="34" y2="473"/><line style="stroke:#A80036;stroke-width:1.0;stroke-dasharray:1.0,4.0;" x1="206.5" x2="206.5" y1="473" y2="512"/><line style="stroke:#181818;stroke-width:0.5;stroke-dasharray:5.0,5.0;" x1="206.5" x2="206.5" y1="512" y2="576"/><rect fill="#E2E2F0" height="28" rx="2.5" ry="2.5" style="stroke:#181818;stroke-width:0.5;" width="95" x="5" y="575"/><text fill="#000000" font-family="Helvetica" font-size="14" lengthAdjust="spacing" textLength="81" x="12" y="592.7803">SpeechState</text><rect fill="#E2E2F0" height="28" rx="2.5" ry="2.5" style="stroke:#181818;stroke-width:0.5;" width="36" x="188.5" y="5"/><text fill="#000000" font-family="Helvetica" font-size="14" lengthAdjust="spacing" textLength="22" x="195.5" y="22.7803">DM</text><rect fill="#E2E2F0" height="28" rx="2.5" ry="2.5" style="stroke:#181818;stroke-width:0.5;" width="36" x="188.5" y="575"/><text fill="#000000" font-family="Helvetica" font-size="14" lengthAdjust="spacing" textLength="22" x="195.5" y="592.7803">DM</text><rect fill="#FFFFFF" height="54" style="stroke:#181818;stroke-width:1.0;" width="10" x="47.5" y="218"/><rect fill="#FFFFFF" height="81" style="stroke:#181818;stroke-width:1.0;" width="10" x="47.5" y="330"/><rect fill="#FFFFFF" height="35" style="stroke:#FFFFFF;stroke-width:1.0;" width="10" x="47.5" y="438"/><line style="stroke:#181818;stroke-width:1.0;" x1="47.5" x2="47.5" y1="438" y2="473"/><line style="stroke:#181818;stroke-width:1.0;" x1="57.5" x2="57.5" y1="438" y2="473"/><line style="stroke:#181818;stroke-width:1.0;" x1="47.5" x2="57.5" y1="438" y2="438"/><rect fill="#FFFFFF" height="46" style="stroke:#FFFFFF;stroke-width:1.0;" width="10" x="47.5" y="512"/><line style="stroke:#181818;stroke-width:1.0;" x1="47.5" x2="47.5" y1="512" y2="558"/><line style="stroke:#181818;stroke-width:1.0;" x1="57.5" x2="57.5" y1="512" y2="558"/><line style="stroke:#181818;stroke-width:1.0;" x1="47.5" x2="57.5" y1="558" y2="558"/><polygon fill="#FEFFDD" points="32,49,226,49,236,59,226,70,32,70,22,59,32,49" style="stroke:#181818;stroke-width:0.5;"/><text fill="#000000" font-family="Helvetica" font-size="13" lengthAdjust="spacing" textLength="69" x="94.75" y="63.0103">Initialization</text><polygon fill="#181818" points="111,90,101,94,111,98,107,94" style="stroke:#181818;stroke-width:1.0;"/><line style="stroke:#181818;stroke-width:1.0;" x1="105" x2="205.5" y1="94" y2="94"/><text fill="#000000" font-family="Helvetica" font-size="13" font-weight="bold" lengthAdjust="spacing" textLength="40" x="117" y="89.0103">spawn</text><rect fill="#E2E2F0" height="28" rx="2.5" ry="2.5" style="stroke:#181818;stroke-width:0.5;" width="95" x="5" y="75"/><text fill="#000000" font-family="Helvetica" font-size="14" lengthAdjust="spacing" textLength="81" x="12" y="92.7803">SpeechState</text><polygon fill="#181818" points="63.5,129,53.5,133,63.5,137,59.5,133" style="stroke:#181818;stroke-width:1.0;"/><line style="stroke:#181818;stroke-width:1.0;" x1="57.5" x2="205.5" y1="133" y2="133"/><text fill="#000000" font-family="Helvetica" font-size="13" lengthAdjust="spacing" textLength="63" x="69.5" y="128.0103">PREPARE</text><polygon fill="#181818" points="194.5,156,204.5,160,194.5,164,198.5,160" style="stroke:#181818;stroke-width:1.0;"/><line style="stroke:#181818;stroke-width:1.0;stroke-dasharray:2.0,2.0;" x1="52.5" x2="200.5" y1="160" y2="160"/><text fill="#000000" font-family="Helvetica" font-size="13" lengthAdjust="spacing" textLength="104" x="59.5" y="155.0103">ASRTTS_READY</text><polygon fill="#FEFFDD" points="32,173,226,173,236,183,226,194,32,194,22,183,32,173" style="stroke:#181818;stroke-width:0.5;"/><text fill="#000000" font-family="Helvetica" font-size="13" lengthAdjust="spacing" textLength="106" x="76.25" y="187.0103">Speech Synthesis</text><polygon fill="#181818" points="68.5,214,58.5,218,68.5,222,64.5,218" style="stroke:#181818;stroke-width:1.0;"/><line style="stroke:#181818;stroke-width:1.0;" x1="62.5" x2="205.5" y1="218" y2="218"/><text fill="#000000" font-family="Helvetica" font-size="13" lengthAdjust="spacing" textLength="45" x="74.5" y="213.0103">SPEAK</text><polygon fill="#181818" points="194.5,241,204.5,245,194.5,249,198.5,245" style="stroke:#181818;stroke-width:1.0;"/><line style="stroke:#181818;stroke-width:1.0;stroke-dasharray:2.0,2.0;" x1="57.5" x2="200.5" y1="245" y2="245"/><text fill="#000000" font-family="Helvetica" font-size="13" lengthAdjust="spacing" textLength="93" x="64.5" y="240.0103">TTS_STARTED</text><polygon fill="#181818" points="194.5,268,204.5,272,194.5,276,198.5,272" style="stroke:#181818;stroke-width:1.0;"/><line style="stroke:#181818;stroke-width:1.0;stroke-dasharray:2.0,2.0;" x1="52.5" x2="200.5" y1="272" y2="272"/><text fill="#000000" font-family="Helvetica" font-size="13" lengthAdjust="spacing" textLength="124" x="59.5" y="267.0103">SPEAK_COMPLETE</text><polygon fill="#FEFFDD" points="32,285,226,285,236,295,226,306,32,306,22,295,32,285" style="stroke:#181818;stroke-width:0.5;"/><text fill="#000000" font-family="Helvetica" font-size="13" lengthAdjust="spacing" textLength="116" x="71.25" y="299.0103">Speech Recognition</text><polygon fill="#181818" points="68.5,326,58.5,330,68.5,334,64.5,330" style="stroke:#181818;stroke-width:1.0;"/><line style="stroke:#181818;stroke-width:1.0;" x1="62.5" x2="205.5" y1="330" y2="330"/><text fill="#000000" font-family="Helvetica" font-size="13" lengthAdjust="spacing" textLength="46" x="74.5" y="325.0103">LISTEN</text><polygon fill="#181818" points="194.5,353,204.5,357,194.5,361,198.5,357" style="stroke:#181818;stroke-width:1.0;"/><line style="stroke:#181818;stroke-width:1.0;stroke-dasharray:2.0,2.0;" x1="57.5" x2="200.5" y1="357" y2="357"/><text fill="#000000" font-family="Helvetica" font-size="13" lengthAdjust="spacing" textLength="95" x="64.5" y="352.0103">ASR_STARTED</text><polygon fill="#181818" points="194.5,380,204.5,384,194.5,388,198.5,384" style="stroke:#181818;stroke-width:1.0;"/><line style="stroke:#181818;stroke-width:1.0;stroke-dasharray:2.0,2.0;" x1="57.5" x2="200.5" y1="384" y2="384"/><text fill="#000000" font-family="Helvetica" font-size="13" lengthAdjust="spacing" textLength="87" x="64.5" y="379.0103">RECOGNISED</text><polygon fill="#181818" points="194.5,407,204.5,411,194.5,415,198.5,411" style="stroke:#181818;stroke-width:1.0;"/><line style="stroke:#181818;stroke-width:1.0;stroke-dasharray:2.0,2.0;" x1="52.5" x2="200.5" y1="411" y2="411"/><text fill="#000000" font-family="Helvetica" font-size="13" lengthAdjust="spacing" textLength="125" x="59.5" y="406.0103">LISTEN_COMPLETE</text><polygon fill="#181818" points="68.5,434,58.5,438,68.5,442,64.5,438" style="stroke:#181818;stroke-width:1.0;"/><line style="stroke:#181818;stroke-width:1.0;" x1="62.5" x2="205.5" y1="438" y2="438"/><text fill="#000000" font-family="Helvetica" font-size="13" lengthAdjust="spacing" textLength="46" x="74.5" y="433.0103">LISTEN</text><polygon fill="#181818" points="194.5,461,204.5,465,194.5,469,198.5,465" style="stroke:#181818;stroke-width:1.0;"/><line style="stroke:#181818;stroke-width:1.0;stroke-dasharray:2.0,2.0;" x1="57.5" x2="200.5" y1="465" y2="465"/><text fill="#000000" font-family="Helvetica" font-size="13" lengthAdjust="spacing" textLength="95" x="64.5" y="460.0103">ASR_STARTED</text><text fill="#000000" font-family="Helvetica" font-size="11" lengthAdjust="spacing" textLength="84" x="87.5" y="495.4702">&gt; noInputTimeout</text><polygon fill="#181818" points="194.5,527,204.5,531,194.5,535,198.5,531" style="stroke:#181818;stroke-width:1.0;"/><line style="stroke:#181818;stroke-width:1.0;stroke-dasharray:2.0,2.0;" x1="57.5" x2="200.5" y1="531" y2="531"/><text fill="#000000" font-family="Helvetica" font-size="13" lengthAdjust="spacing" textLength="92" x="64.5" y="526.0103">ASR_NOINPUT</text><polygon fill="#181818" points="194.5,554,204.5,558,194.5,562,198.5,558" style="stroke:#181818;stroke-width:1.0;"/><line style="stroke:#181818;stroke-width:1.0;stroke-dasharray:2.0,2.0;" x1="52.5" x2="200.5" y1="558" y2="558"/><text fill="#000000" font-family="Helvetica" font-size="13" lengthAdjust="spacing" textLength="125" x="59.5" y="553.0103">LISTEN_COMPLETE</text><!--SRC=[dOz1JiCm44NtFiMi8pK7oA9Ir1Y8Q9F8DWjMrSYun2AnetXI1AV7KIeQ0TtWZUq_C__z2M_M3JXY3o_cX5D7TzvHXRs11zET3LcDBDRZRGTq1CkHWp6wbOHaBWe6a9ArpaS5zUX3oA1qbYnszXF9UiVqQER-s5OSOBED3yWWISA0xov9rc8ZU9CBpk9d4xLOoI2NGYbv53mlddzmbZGWFnor9jW0Qo_PyFoHeIPxlj3NhhEbLBbGl62ZeMbqoy1nLn-QFLVyRvGmsh_EsyMrLgnzAHMlRiBY2j-mjIxuhhwlIddDi1XTG_oFaQOfRC7vqWqJATiRFn54yTT0LPTLywHkqBy0]--></g></svg>