<svg xmlns="http://www.w3.org/2000/svg" xmlns:xlink="http://www.w3.org/1999/xlink" contentStyleType="text/css" height="555px" preserveAspectRatio="none" style="width:252px;height:555px;background:#FFFFFF;" version="1.1" viewBox="0 0 252 555" width="252px" zoomAndPan="magnify"><defs/><g><rect fill="#FFFFFF" height="54" style="stroke:#181818;stroke-width:1.0;" width="10" x="47.5" y="218"/><rect fill="#FFFFFF" height="54" style="stroke:#181818;stroke-width:1.0;" width="10" x="47.5" y="330"/><rect fill="#FFFFFF" height="35" style="stroke:#FFFFFF;stroke-width:1.0;" width="10" x="47.5" y="411"/><line style="stroke:#181818;stroke-width:1.0;" x1="47.5" x2="47.5" y1="411" y2="446"/><line style="stroke:#181818;stroke-width:1.0;" x1="57.5" x2="57.5" y1="411" y2="446"/><line style="stroke:#181818;stroke-width:1.0;" x1="47.5" x2="57.5" y1="411" y2="411"/><rect fill="#FFFFFF" height="19" style="stroke:#FFFFFF;stroke-width:1.0;" width="10" x="47.5" y="485"/><line style="stroke:#181818;stroke-width:1.0;" x1="47.5" x2="47.5" y1="485" y2="504"/><line style="stroke:#181818;stroke-width:1.0;" x1="57.5" x2="57.5" y1="485" y2="504"/><line style="stroke:#181818;stroke-width:1.0;" x1="47.5" x2="57.5" y1="504" y2="504"/><line style="stroke:#181818;stroke-width:0.5;stroke-dasharray:5.0,5.0;" x1="52" x2="52" y1="104.5" y2="446"/><line style="stroke:#A80036;stroke-width:1.0;stroke-dasharray:1.0,4.0;" x1="52" x2="52" y1="446" y2="485"/><line style="stroke:#181818;stroke-width:0.5;stroke-dasharray:5.0,5.0;" x1="52" x2="52" y1="485" y2="522"/><line style="stroke:#181818;stroke-width:0.5;stroke-dasharray:5.0,5.0;" x1="205.5" x2="205.5" y1="34" y2="446"/><line style="stroke:#A80036;stroke-width:1.0;stroke-dasharray:1.0,4.0;" x1="205.5" x2="205.5" y1="446" y2="485"/><line style="stroke:#181818;stroke-width:0.5;stroke-dasharray:5.0,5.0;" x1="205.5" x2="205.5" y1="485" y2="522"/><rect fill="#E2E2F0" height="28" rx="2.5" ry="2.5" style="stroke:#181818;stroke-width:0.5;" width="95" x="5" y="521"/><text fill="#000000" font-family="Helvetica" font-size="14" lengthAdjust="spacing" textLength="81" x="12" y="538.7803">SpeechState</text><rect fill="#E2E2F0" height="28" rx="2.5" ry="2.5" style="stroke:#181818;stroke-width:0.5;" width="36" x="187.5" y="5"/><text fill="#000000" font-family="Helvetica" font-size="14" lengthAdjust="spacing" textLength="22" x="194.5" y="22.7803">DM</text><rect fill="#E2E2F0" height="28" rx="2.5" ry="2.5" style="stroke:#181818;stroke-width:0.5;" width="36" x="187.5" y="521"/><text fill="#000000" font-family="Helvetica" font-size="14" lengthAdjust="spacing" textLength="22" x="194.5" y="538.7803">DM</text><rect fill="#FFFFFF" height="54" style="stroke:#181818;stroke-width:1.0;" width="10" x="47.5" y="218"/><rect fill="#FFFFFF" height="54" style="stroke:#181818;stroke-width:1.0;" width="10" x="47.5" y="330"/><rect fill="#FFFFFF" height="35" style="stroke:#FFFFFF;stroke-width:1.0;" width="10" x="47.5" y="411"/><line style="stroke:#181818;stroke-width:1.0;" x1="47.5" x2="47.5" y1="411" y2="446"/><line style="stroke:#181818;stroke-width:1.0;" x1="57.5" x2="57.5" y1="411" y2="446"/><line style="stroke:#181818;stroke-width:1.0;" x1="47.5" x2="57.5" y1="411" y2="411"/><rect fill="#FFFFFF" height="19" style="stroke:#FFFFFF;stroke-width:1.0;" width="10" x="47.5" y="485"/><line style="stroke:#181818;stroke-width:1.0;" x1="47.5" x2="47.5" y1="485" y2="504"/><line style="stroke:#181818;stroke-width:1.0;" x1="57.5" x2="57.5" y1="485" y2="504"/><line style="stroke:#181818;stroke-width:1.0;" x1="47.5" x2="57.5" y1="504" y2="504"/><polygon fill="#FEFFDD" points="32,49,225,49,235,59,225,70,32,70,22,59,32,49" style="stroke:#181818;stroke-width:0.5;"/><text fill="#000000" font-family="Helvetica" font-size="13" lengthAdjust="spacing" textLength="69" x="94.25" y="63.0103">Initialization</text><polygon fill="#181818" points="111,90,101,94,111,98,107,94" style="stroke:#181818;stroke-width:1.0;"/><line style="stroke:#181818;stroke-width:1.0;" x1="105" x2="204.5" y1="94" y2="94"/><text fill="#000000" font-family="Helvetica" font-size="13" font-weight="bold" lengthAdjust="spacing" textLength="40" x="117" y="89.0103">spawn</text><rect fill="#E2E2F0" height="28" rx="2.5" ry="2.5" style="stroke:#181818;stroke-width:0.5;" width="95" x="5" y="75"/><text fill="#000000" font-family="Helvetica" font-size="14" lengthAdjust="spacing" textLength="81" x="12" y="92.7803">SpeechState</text><polygon fill="#181818" points="63.5,129,53.5,133,63.5,137,59.5,133" style="stroke:#181818;stroke-width:1.0;"/><line style="stroke:#181818;stroke-width:1.0;" x1="57.5" x2="204.5" y1="133" y2="133"/><text fill="#000000" font-family="Helvetica" font-size="13" lengthAdjust="spacing" textLength="63" x="69.5" y="128.0103">PREPARE</text><polygon fill="#181818" points="193.5,156,203.5,160,193.5,164,197.5,160" style="stroke:#181818;stroke-width:1.0;"/><line style="stroke:#181818;stroke-width:1.0;stroke-dasharray:2.0,2.0;" x1="52.5" x2="199.5" y1="160" y2="160"/><text fill="#000000" font-family="Helvetica" font-size="13" lengthAdjust="spacing" textLength="104" x="59.5" y="155.0103">ASRTTS_READY</text><polygon fill="#FEFFDD" points="32,173,225,173,235,183,225,194,32,194,22,183,32,173" style="stroke:#181818;stroke-width:0.5;"/><text fill="#000000" font-family="Helvetica" font-size="13" lengthAdjust="spacing" textLength="106" x="75.75" y="187.0103">Speech Synthesis</text><polygon fill="#181818" points="68.5,214,58.5,218,68.5,222,64.5,218" style="stroke:#181818;stroke-width:1.0;"/><line style="stroke:#181818;stroke-width:1.0;" x1="62.5" x2="204.5" y1="218" y2="218"/><text fill="#000000" font-family="Helvetica" font-size="13" lengthAdjust="spacing" textLength="45" x="74.5" y="213.0103">SPEAK</text><polygon fill="#181818" points="193.5,241,203.5,245,193.5,249,197.5,245" style="stroke:#181818;stroke-width:1.0;"/><line style="stroke:#181818;stroke-width:1.0;stroke-dasharray:2.0,2.0;" x1="57.5" x2="199.5" y1="245" y2="245"/><text fill="#000000" font-family="Helvetica" font-size="13" lengthAdjust="spacing" textLength="93" x="64.5" y="240.0103">TTS_STARTED</text><polygon fill="#181818" points="193.5,268,203.5,272,193.5,276,197.5,272" style="stroke:#181818;stroke-width:1.0;"/><line style="stroke:#181818;stroke-width:1.0;stroke-dasharray:2.0,2.0;" x1="52.5" x2="199.5" y1="272" y2="272"/><text fill="#000000" font-family="Helvetica" font-size="13" lengthAdjust="spacing" textLength="124" x="59.5" y="267.0103">SPEAK_COMPLETE</text><polygon fill="#FEFFDD" points="32,285,225,285,235,295,225,306,32,306,22,295,32,285" style="stroke:#181818;stroke-width:0.5;"/><text fill="#000000" font-family="Helvetica" font-size="13" lengthAdjust="spacing" textLength="116" x="70.75" y="299.0103">Speech Recognition</text><polygon fill="#181818" points="68.5,326,58.5,330,68.5,334,64.5,330" style="stroke:#181818;stroke-width:1.0;"/><line style="stroke:#181818;stroke-width:1.0;" x1="62.5" x2="204.5" y1="330" y2="330"/><text fill="#000000" font-family="Helvetica" font-size="13" lengthAdjust="spacing" textLength="46" x="74.5" y="325.0103">LISTEN</text><polygon fill="#181818" points="193.5,353,203.5,357,193.5,361,197.5,357" style="stroke:#181818;stroke-width:1.0;"/><line style="stroke:#181818;stroke-width:1.0;stroke-dasharray:2.0,2.0;" x1="57.5" x2="199.5" y1="357" y2="357"/><text fill="#000000" font-family="Helvetica" font-size="13" lengthAdjust="spacing" textLength="95" x="64.5" y="352.0103">ASR_STARTED</text><polygon fill="#181818" points="193.5,380,203.5,384,193.5,388,197.5,384" style="stroke:#181818;stroke-width:1.0;"/><line style="stroke:#181818;stroke-width:1.0;stroke-dasharray:2.0,2.0;" x1="52.5" x2="199.5" y1="384" y2="384"/><text fill="#000000" font-family="Helvetica" font-size="13" lengthAdjust="spacing" textLength="87" x="59.5" y="379.0103">RECOGNISED</text><polygon fill="#181818" points="68.5,407,58.5,411,68.5,415,64.5,411" style="stroke:#181818;stroke-width:1.0;"/><line style="stroke:#181818;stroke-width:1.0;" x1="62.5" x2="204.5" y1="411" y2="411"/><text fill="#000000" font-family="Helvetica" font-size="13" lengthAdjust="spacing" textLength="46" x="74.5" y="406.0103">LISTEN</text><polygon fill="#181818" points="193.5,434,203.5,438,193.5,442,197.5,438" style="stroke:#181818;stroke-width:1.0;"/><line style="stroke:#181818;stroke-width:1.0;stroke-dasharray:2.0,2.0;" x1="57.5" x2="199.5" y1="438" y2="438"/><text fill="#000000" font-family="Helvetica" font-size="13" lengthAdjust="spacing" textLength="95" x="64.5" y="433.0103">ASR_STARTED</text><text fill="#000000" font-family="Helvetica" font-size="11" lengthAdjust="spacing" textLength="84" x="87" y="468.4702">&gt; noInputTimeout</text><polygon fill="#181818" points="193.5,500,203.5,504,193.5,508,197.5,504" style="stroke:#181818;stroke-width:1.0;"/><line style="stroke:#181818;stroke-width:1.0;stroke-dasharray:2.0,2.0;" x1="52.5" x2="199.5" y1="504" y2="504"/><text fill="#000000" font-family="Helvetica" font-size="13" lengthAdjust="spacing" textLength="92" x="59.5" y="499.0103">ASR_NOINPUT</text><!--SRC=[dOz1JuGm48Nl_HLp9bb-08TDo5ALk0kahGTFcmcEqWWjeSCQ_VMMi2PaenTxQVlczNrzuTsw4ISSu8LUSUxvpZkkS21ueFv2R5iKSHvtEw9ZM9SUYTfECp9T5GoWjUYSZmgsamyXWz9PjjZRBsJhdMWdMlpHLfnWjuy7o219meWVBacsOgDaaoifucKNjJZ98DVA67rMCY-URpZhRq1_Ekues03RBDt8_55Wo_PofMzJbqXjScLa8IRYUNBhW_EXFZL7QUJlA4MjVrlQnLeRrh7KHbP_mcA5MvYIX_g-AdLK_fUJfYdimVdIZJCREv2V6QBu0rYyLLrMpPFv1W00]--></g></svg>